<svg width="387" height="237" viewBox="0 0 387 237" fill="none" xmlns="http://www.w3.org/2000/svg">
<path d="M22.1142 178.339L0 60.5457H22.1142L33.1713 119.442L44.2284 60.5457H66.3425L44.2284 178.339H22.1142Z" fill="#F5F8FA"/>
<path d="M78.0484 28.9771V6.832L100.163 1.6491V23.7942L78.0484 28.9771ZM78.5189 178.339V65.7286L100.633 60.5457V178.339H78.5189Z" fill="#F5F8FA"/>
<path d="M131.981 178.339C127.276 178.339 123.198 176.69 119.748 173.392C116.454 170.093 114.807 166.01 114.807 161.141V125.568C114.807 120.856 116.454 116.851 119.748 113.553C123.198 110.097 127.276 108.37 131.981 108.37H150.331C152.841 108.37 154.88 107.584 156.448 106.014C158.173 104.286 159.036 102.245 159.036 99.8887V91.172C159.036 88.8161 158.173 86.8529 156.448 85.2823C154.88 83.5547 152.841 82.6908 150.331 82.6908H124.923L129.864 60.5457H163.976C168.681 60.5457 172.681 62.2734 175.974 65.7286C179.425 69.0268 181.15 73.0318 181.15 77.7435V178.339H131.981ZM145.391 156.194H159.036V130.515H145.391C143.038 130.515 140.999 131.379 139.274 133.106C137.706 134.677 136.922 136.64 136.922 138.996V147.713C136.922 150.069 137.706 152.11 139.274 153.838C140.999 155.409 143.038 156.194 145.391 156.194Z" fill="#F5F8FA"/>
<path d="M199 27.328V5.1829L221.114 0V22.1451L199 27.328ZM172.416 237C167.554 237 163.476 235.351 160.183 232.053C156.889 228.754 155.242 224.671 155.242 219.802V194.359L177.356 199.306V206.374C177.356 208.573 178.141 210.536 179.709 212.263C181.434 213.991 183.551 214.855 186.061 214.855H190.531C193.04 214.855 195.079 213.991 196.647 212.263C198.216 210.536 199 208.573 199 206.374V65.493L221.114 60.5457V219.802C221.114 224.671 219.467 228.754 216.174 232.053C212.88 235.351 208.802 237 203.94 237H172.416Z" fill="#F5F8FA"/>
<path d="M252.596 178.339C247.891 178.339 243.813 176.69 240.363 173.392C237.069 170.093 235.423 166.01 235.423 161.141V125.568C235.423 120.856 237.069 116.851 240.363 113.553C243.813 110.097 247.891 108.37 252.596 108.37H270.946C273.456 108.37 275.495 107.584 277.063 106.014C278.788 104.286 279.651 102.245 279.651 99.8887V91.172C279.651 88.8161 278.788 86.8529 277.063 85.2823C275.495 83.5547 273.456 82.6908 270.946 82.6908H245.539L250.479 60.5457H284.591C289.297 60.5457 293.296 62.2734 296.59 65.7286C300.04 69.0268 301.765 73.0318 301.765 77.7435V178.339H252.596ZM266.006 156.194H279.651V130.515H266.006C263.654 130.515 261.615 131.379 259.889 133.106C258.321 134.677 257.537 136.64 257.537 138.996V147.713C257.537 150.069 258.321 152.11 259.889 153.838C261.615 155.409 263.654 156.194 266.006 156.194Z" fill="#F5F8FA"/>
<path d="M323.245 50.6511L342.301 30.8618H365.356L384.412 50.6511H361.357L353.829 42.6411L346.3 50.6511H323.245ZM337.831 178.339C333.126 178.339 329.048 176.69 325.598 173.392C322.304 169.936 320.657 165.853 320.657 161.141V77.508C320.657 72.7962 322.304 68.7913 325.598 65.493C329.048 62.1948 333.126 60.5457 337.831 60.5457H369.826C374.531 60.5457 378.531 62.1948 381.824 65.493C385.275 68.7913 387 72.7962 387 77.508V113.317C387 118.029 385.275 122.112 381.824 125.568C378.531 128.866 374.531 130.515 369.826 130.515H342.772V147.713C342.772 150.069 343.556 152.11 345.124 153.838C346.849 155.409 348.888 156.194 351.241 156.194H382.06L387 178.339H337.831ZM342.772 108.37H356.417C358.769 108.37 360.73 107.584 362.298 106.014C364.023 104.286 364.886 102.245 364.886 99.8887V91.172C364.886 88.8161 364.023 86.8529 362.298 85.2823C360.73 83.5547 358.769 82.6908 356.417 82.6908H351.241C348.888 82.6908 346.849 83.5547 345.124 85.2823C343.556 86.8529 342.772 88.8161 342.772 91.172V108.37Z" fill="#F5F8FA"/>
</svg>
